<svg xmlns="http://www.w3.org/2000/svg" version="1.1" xmlns:xlink="http://www.w3.org/1999/xlink" xmlns:svgjs="http://svgjs.dev/svgjs" width="1440" height="900" preserveAspectRatio="none" viewBox="0 0 1440 900"><g mask="url(&quot;#SvgjsMask1008&quot;)" fill="none"><rect width="1440" height="900" x="0" y="0" fill="rgba(25, 138, 255, 1)"></rect><path d="M0,456.942C105.733,452.179,214.178,527.292,310.042,482.435C407.407,436.876,467.883,329.92,494.203,225.695C518.674,128.792,473.828,32.155,448.142,-64.433C425.455,-149.741,405.551,-234.934,352.868,-305.762C297.31,-380.455,221.831,-433.053,140.402,-478.164C39.709,-533.947,-66.863,-635.902,-175.771,-598.621C-285.73,-560.98,-294.573,-407.091,-355.802,-308.304C-405.585,-227.985,-481.145,-164.338,-502.061,-72.186C-523.928,24.158,-503.182,122.238,-475.015,216.932C-443.129,324.126,-428.347,460.767,-328.529,511.202C-227.415,562.292,-113.173,462.04,0,456.942" fill="#0067d2"></path><path d="M1440 1342.5430000000001C1525.946 1331.779 1611.605 1326.609 1688.317 1286.388 1770.096 1243.51 1852.834 1190.047 1891.113 1106.017 1929.38 1022.013 1897.8020000000001 926.949 1894.071 834.715 1889.856 730.514 1921.759 618.5550000000001 1867.786 529.322 1811.2930000000001 435.924 1709.2350000000001 366.919 1601.296 350.67600000000004 1497.132 335.001 1399.926 396.465 1306.352 444.837 1227.571 485.561 1167.313 546.889 1103.1979999999999 608.1600000000001 1031.96 676.238 929.7049999999999 727.262 909.827 823.773 889.838 920.823 961.25 1009.7090000000001 1001.879 1100.083 1042.766 1191.032 1060.964 1305.747 1148.212 1354.031 1235.1390000000001 1402.137 1341.42 1354.8890000000001 1440 1342.5430000000001" fill="#5faeff"></path></g><defs><mask id="SvgjsMask1008"><rect width="1440" height="900" fill="#ffffff"></rect></mask></defs></svg>